<svg xmlns="http://www.w3.org/2000/svg" viewBox="0 0 48 48" width="48" height="48">
  <path fill="#4caf50" d="M45,16.2l-5,2.75l-5,4.75L35,40h7c1.657,0,3-1.343,3-3V16.2z"/>
  <path fill="#1e88e5" d="M3,16.2l3.614,1.71L13,23.7V40H6c-1.657,0-3-1.343-3-3V16.2z"/>
  <path fill="#e53935" d="M35,11.2l-11,8.25L13,11.2l-2,1.8l13,9.75L37,13L35,11.2z"/>
  <path fill="#c62828" d="M3,12.298V16.2l10,7.5V11.2L9.876,8.859C8.47,7.734,6.4,7.869,5.148,9.161L3,12.298z"/>
  <path fill="#fbc02d" d="M45,12.298V16.2l-10,7.5V11.2l3.124-2.341C39.53,7.734,41.6,7.869,42.852,9.161L45,12.298z"/>
</svg>
