<svg xmlns="http://www.w3.org/2000/svg" viewBox="0 0 48 48" width="48" height="48">
  <defs>
    <linearGradient id="hs_grad" x1="10" y1="8" x2="38" y2="42" gradientUnits="userSpaceOnUse">
      <stop offset="0" stop-color="#ff8f59"/>
      <stop offset="1" stop-color="#ff5c35"/>
    </linearGradient>
  </defs>
  <!-- Sprocket body -->
  <circle cx="28" cy="28" r="8" fill="none" stroke="url(#hs_grad)" stroke-width="3.5"/>
  <!-- Sprocket teeth -->
  <rect x="26.5" y="14" width="3" height="6" rx="1.5" fill="#ff7a59"/>
  <rect x="26.5" y="36" width="3" height="6" rx="1.5" fill="#ff7a59"/>
  <rect x="14" y="26.5" width="6" height="3" rx="1.5" fill="#ff7a59"/>
  <rect x="36" y="26.5" width="6" height="3" rx="1.5" fill="#ff7a59"/>
  <rect x="17.3" y="17.3" width="3" height="6" rx="1.5" fill="#ff7a59" transform="rotate(-45 18.8 20.3)"/>
  <rect x="33.7" y="30.7" width="3" height="6" rx="1.5" fill="#ff7a59" transform="rotate(-45 35.2 33.7)"/>
  <rect x="17.3" y="30.7" width="3" height="6" rx="1.5" fill="#ff7a59" transform="rotate(45 18.8 33.7)"/>
  <rect x="33.7" y="17.3" width="3" height="6" rx="1.5" fill="#ff7a59" transform="rotate(45 35.2 20.3)"/>
  <!-- Center dot -->
  <circle cx="28" cy="28" r="3" fill="#ff7a59"/>
  <!-- Top stem -->
  <rect x="27" y="6" width="2" height="8" rx="1" fill="#ff7a59"/>
  <!-- Top circle -->
  <circle cx="28" cy="5" r="3" fill="none" stroke="#ff7a59" stroke-width="2"/>
  <!-- Bottom-left connector -->
  <line x1="18" y1="36" x2="12" y2="40" stroke="#ff7a59" stroke-width="2" stroke-linecap="round"/>
  <circle cx="10" cy="42" r="2.5" fill="#ff7a59"/>
</svg>
