<svg xmlns="http://www.w3.org/2000/svg" viewBox="0 0 48 48" width="48" height="48">
  <circle cx="34" cy="14" r="3" fill="#ff7a59"/>
  <path fill="#ff7a59" d="M34,17v7.1c-1.2-0.7-2.5-1.1-4-1.1c-4.4,0-8,3.6-8,8s3.6,8,8,8c1.5,0,2.8-0.4,4-1.1V39l0,0 c0,0,0,0,0,0c0,1.7,1.3,3,3,3s3-1.3,3-3V17H34z M30,35c-2.2,0-4-1.8-4-4s1.8-4,4-4s4,1.8,4,4S32.2,35,30,35z"/>
  <path fill="#ff7a59" d="M15.4,24.3l-4.3-6.6C10.7,17.1,10,17.4,10,18.1v11.8c0,0.7,0.7,1,1.1,0.4l4.3-6.6 C15.5,23.5,15.6,23.9,15.4,24.3z"/>
  <line x1="15" y1="24" x2="22" y2="24" stroke="#ff7a59" stroke-width="3" stroke-linecap="round"/>
</svg>
