<svg xmlns="http://www.w3.org/2000/svg" viewBox="0 0 128 128" width="48" height="48">
  <path d="M26.9 80.1c0 7.5-6.1 13.6-13.6 13.6S-.3 87.6-.3 80.1c0-7.5 6.1-13.6 13.6-13.6h13.6v13.6zM33.7 80.1c0-7.5 6.1-13.6 13.6-13.6s13.6 6.1 13.6 13.6v34c0 7.5-6.1 13.6-13.6 13.6s-13.6-6.1-13.6-13.6v-34z" fill="#E01E5A"/>
  <path d="M47.3 26.9c-7.5 0-13.6-6.1-13.6-13.6S39.8-.3 47.3-.3s13.6 6.1 13.6 13.6v13.6H47.3zM47.3 33.8c7.5 0 13.6 6.1 13.6 13.6s-6.1 13.6-13.6 13.6H13.1C5.6 61 -.5 54.9-.5 47.4s6.1-13.6 13.6-13.6h34.2z" fill="#36C5F0"/>
  <path d="M100.9 47.4c0-7.5 6.1-13.6 13.6-13.6s13.6 6.1 13.6 13.6-6.1 13.6-13.6 13.6h-13.6V47.4zM94.1 47.4c0 7.5-6.1 13.6-13.6 13.6s-13.6-6.1-13.6-13.6V13.1c0-7.5 6.1-13.6 13.6-13.6s13.6 6.1 13.6 13.6v34.3z" fill="#2EB67D"/>
  <path d="M80.5 100.9c7.5 0 13.6 6.1 13.6 13.6s-6.1 13.6-13.6 13.6-13.6-6.1-13.6-13.6v-13.6h13.6zM80.5 94.1c-7.5 0-13.6-6.1-13.6-13.6s6.1-13.6 13.6-13.6h34.2c7.5 0 13.6 6.1 13.6 13.6s-6.1 13.6-13.6 13.6H80.5z" fill="#ECB22E"/>
</svg>
